<svg width="168" height="24" viewBox="0 0 168 24" fill="none" xmlns="http://www.w3.org/2000/svg">
<path d="M40.5382 23.24C39.4822 23.24 38.5542 23.04 37.7542 22.64C36.9702 22.24 36.3622 21.664 35.9302 20.912C35.4982 20.144 35.2822 19.24 35.2822 18.2V14.6C35.2822 13.544 35.4982 12.64 35.9302 11.888C36.3622 11.136 36.9702 10.56 37.7542 10.16C38.5542 9.76 39.4822 9.56 40.5382 9.56C42.0582 9.56 43.2822 9.968 44.2102 10.784C45.1382 11.6 45.6262 12.712 45.6742 14.12H43.5142C43.4662 13.272 43.1782 12.624 42.6502 12.176C42.1382 11.712 41.4342 11.48 40.5382 11.48C39.5942 11.48 38.8422 11.752 38.2822 12.296C37.7222 12.824 37.4422 13.584 37.4422 14.576V18.2C37.4422 19.192 37.7222 19.96 38.2822 20.504C38.8422 21.048 39.5942 21.32 40.5382 21.32C41.4342 21.32 42.1382 21.088 42.6502 20.624C43.1782 20.16 43.4662 19.512 43.5142 18.68H45.6742C45.6262 20.088 45.1382 21.2 44.2102 22.016C43.2822 22.832 42.0582 23.24 40.5382 23.24ZM49.9128 23V5.48H52.0728V15.248H54.6168L58.4568 9.8H60.9288L56.4888 16.088L61.0008 23H58.4808L54.6408 17.12H52.0728V23H49.9128ZM69.2234 23.24C68.1834 23.24 67.2714 23.032 66.4874 22.616C65.7194 22.2 65.1194 21.616 64.6874 20.864C64.2714 20.096 64.0634 19.208 64.0634 18.2V14.6C64.0634 13.576 64.2714 12.688 64.6874 11.936C65.1194 11.184 65.7194 10.6 66.4874 10.184C67.2714 9.768 68.1834 9.56 69.2234 9.56C70.2634 9.56 71.1674 9.768 71.9354 10.184C72.7194 10.6 73.3194 11.184 73.7354 11.936C74.1674 12.688 74.3834 13.576 74.3834 14.6V16.928H66.1754V18.2C66.1754 19.24 66.4394 20.04 66.9674 20.6C67.4954 21.144 68.2474 21.416 69.2234 21.416C70.0554 21.416 70.7274 21.272 71.2394 20.984C71.7514 20.68 72.0634 20.232 72.1754 19.64H74.3354C74.1914 20.744 73.6474 21.624 72.7034 22.28C71.7754 22.92 70.6154 23.24 69.2234 23.24ZM72.2714 15.488V14.6C72.2714 13.56 72.0074 12.76 71.4794 12.2C70.9674 11.64 70.2154 11.36 69.2234 11.36C68.2474 11.36 67.4954 11.64 66.9674 12.2C66.4394 12.76 66.1754 13.56 66.1754 14.6V15.296H72.4394L72.2714 15.488ZM85.0541 23C83.9181 23 83.0301 22.696 82.3901 22.088C81.7661 21.48 81.4541 20.624 81.4541 19.52V11.768H77.7341V9.8H81.4541V6.08H83.6141V9.8H88.8941V11.768H83.6141V19.52C83.6141 20.528 84.0941 21.032 85.0541 21.032H88.6541V23H85.0541ZM98.0047 23.24C97.3967 23.24 96.9087 23.064 96.5407 22.712C96.1887 22.36 96.0127 21.888 96.0127 21.296C96.0127 20.672 96.1887 20.176 96.5407 19.808C96.9087 19.44 97.3967 19.256 98.0047 19.256C98.6127 19.256 99.0927 19.44 99.4447 19.808C99.8127 20.176 99.9967 20.672 99.9967 21.296C99.9967 21.888 99.8127 22.36 99.4447 22.712C99.0927 23.064 98.6127 23.24 98.0047 23.24ZM111.987 23.192C111.091 23.192 110.307 23.056 109.635 22.784C108.979 22.496 108.451 22.096 108.051 21.584C107.667 21.072 107.435 20.464 107.355 19.76H109.515C109.611 20.224 109.867 20.592 110.283 20.864C110.715 21.136 111.283 21.272 111.987 21.272H112.995C113.843 21.272 114.475 21.104 114.891 20.768C115.307 20.416 115.515 19.952 115.515 19.376C115.515 18.816 115.323 18.376 114.939 18.056C114.571 17.72 114.019 17.496 113.283 17.384L111.507 17.096C110.211 16.872 109.243 16.472 108.603 15.896C107.979 15.304 107.667 14.448 107.667 13.328C107.667 12.144 108.043 11.232 108.795 10.592C109.547 9.936 110.675 9.608 112.179 9.608H113.091C114.355 9.608 115.371 9.904 116.139 10.496C116.907 11.088 117.371 11.888 117.531 12.896H115.371C115.275 12.48 115.035 12.152 114.651 11.912C114.267 11.656 113.747 11.528 113.091 11.528H112.179C111.363 11.528 110.763 11.68 110.379 11.984C110.011 12.288 109.827 12.744 109.827 13.352C109.827 13.896 109.987 14.296 110.307 14.552C110.627 14.808 111.131 14.992 111.819 15.104L113.595 15.392C115.019 15.616 116.051 16.032 116.691 16.64C117.347 17.248 117.675 18.128 117.675 19.28C117.675 20.496 117.283 21.456 116.499 22.16C115.731 22.848 114.563 23.192 112.995 23.192H111.987ZM126.786 23.24C125.746 23.24 124.834 23.032 124.05 22.616C123.282 22.2 122.682 21.616 122.25 20.864C121.834 20.096 121.626 19.208 121.626 18.2V14.6C121.626 13.576 121.834 12.688 122.25 11.936C122.682 11.184 123.282 10.6 124.05 10.184C124.834 9.768 125.746 9.56 126.786 9.56C127.826 9.56 128.73 9.768 129.498 10.184C130.282 10.6 130.882 11.184 131.298 11.936C131.73 12.688 131.946 13.576 131.946 14.6V16.928H123.738V18.2C123.738 19.24 124.002 20.04 124.53 20.6C125.058 21.144 125.81 21.416 126.786 21.416C127.618 21.416 128.29 21.272 128.802 20.984C129.314 20.68 129.626 20.232 129.738 19.64H131.898C131.754 20.744 131.21 21.624 130.266 22.28C129.338 22.92 128.178 23.24 126.786 23.24ZM129.834 15.488V14.6C129.834 13.56 129.57 12.76 129.042 12.2C128.53 11.64 127.778 11.36 126.786 11.36C125.81 11.36 125.058 11.64 124.53 12.2C124.002 12.76 123.738 13.56 123.738 14.6V15.296H130.002L129.834 15.488ZM141.273 23.24C140.217 23.24 139.289 23.04 138.489 22.64C137.705 22.24 137.097 21.664 136.665 20.912C136.233 20.144 136.017 19.24 136.017 18.2V14.6C136.017 13.544 136.233 12.64 136.665 11.888C137.097 11.136 137.705 10.56 138.489 10.16C139.289 9.76 140.217 9.56 141.273 9.56C142.793 9.56 144.017 9.968 144.945 10.784C145.873 11.6 146.361 12.712 146.409 14.12H144.249C144.201 13.272 143.913 12.624 143.385 12.176C142.873 11.712 142.169 11.48 141.273 11.48C140.329 11.48 139.577 11.752 139.017 12.296C138.457 12.824 138.177 13.584 138.177 14.576V18.2C138.177 19.192 138.457 19.96 139.017 20.504C139.577 21.048 140.329 21.32 141.273 21.32C142.169 21.32 142.873 21.088 143.385 20.624C143.913 20.16 144.201 19.512 144.249 18.68H146.409C146.361 20.088 145.873 21.2 144.945 22.016C144.017 22.832 142.793 23.24 141.273 23.24ZM157.007 23C155.871 23 154.983 22.696 154.343 22.088C153.719 21.48 153.407 20.624 153.407 19.52V11.768H149.687V9.8H153.407V6.08H155.567V9.8H160.847V11.768H155.567V19.52C155.567 20.528 156.047 21.032 157.007 21.032H160.607V23H157.007Z" fill="white"/>
<path d="M24.4611 15.1706C22.1683 15.1706 20.303 13.4165 20.303 11.2604C20.303 9.10427 22.1683 7.35016 24.4611 7.35016C26.7538 7.35016 28.6192 9.10427 28.6192 11.2604C28.6192 13.4165 26.7538 15.1706 24.4611 15.1706ZM24.4611 8.33817C22.7837 8.33817 21.419 9.64905 21.419 11.2604C21.419 12.8717 22.7837 14.1826 24.4611 14.1826C26.1384 14.1826 27.5031 12.8717 27.5031 11.2604C27.5031 9.64905 26.1384 8.33817 24.4611 8.33817Z" fill="#00BFA6"/>
<path d="M24.4703 15.0774C22.1724 15.0774 20.303 13.2656 20.303 11.0387C20.303 8.81173 22.1724 7 24.4703 7C26.7681 7 28.6376 8.81173 28.6376 11.0387C28.6376 13.2656 26.7681 15.0774 24.4703 15.0774ZM24.4703 8.02047C22.7892 8.02047 21.4215 9.37441 21.4215 11.0387C21.4215 12.7029 22.7892 14.0569 24.4703 14.0569C26.1514 14.0569 27.519 12.7029 27.519 11.0387C27.519 9.37441 26.1514 8.02047 24.4703 8.02047Z" fill="#00BFA6"/>
<path d="M28.5177 23H20.6252C19.9292 22.9993 19.2619 22.7468 18.7698 22.2978C18.2776 21.8488 18.0008 21.24 18 20.605V13.5421C18.0005 13.1074 18.1901 12.6906 18.527 12.3832C18.8639 12.0758 19.3207 11.9029 19.7972 11.9024H29.3456C29.8221 11.9029 30.2789 12.0758 30.6159 12.3832C30.9528 12.6906 31.1423 13.1074 31.1429 13.5421V20.605C31.1421 21.24 30.8652 21.8488 30.3731 22.2978C29.881 22.7468 29.2137 22.9993 28.5177 23V23Z" fill="white"/>
<path d="M26.0657 16.5749C26.0659 16.3254 25.9932 16.0805 25.8551 15.8652C25.7171 15.6499 25.5186 15.4721 25.2802 15.3501C25.0417 15.228 24.7719 15.1662 24.4986 15.1709C24.2252 15.1756 23.9582 15.2467 23.725 15.3769C23.4918 15.5071 23.3008 15.6916 23.1718 15.9115C23.0427 16.1314 22.9803 16.3787 22.9908 16.628C23.0014 16.8772 23.0846 17.1194 23.2318 17.3295C23.3791 17.5397 23.5851 17.7102 23.8286 17.8236V20.0189H25.2268V17.8236C25.4792 17.7062 25.6911 17.5275 25.8392 17.3071C25.9872 17.0868 26.0656 16.8333 26.0657 16.5749V16.5749Z" fill="white"/>
<path d="M26.0657 16.5749C26.0659 16.3254 25.9932 16.0805 25.8551 15.8652C25.7171 15.6499 25.5186 15.4721 25.2802 15.3501C25.0417 15.228 24.7719 15.1662 24.4986 15.1709C24.2252 15.1756 23.9582 15.2467 23.725 15.3769C23.4918 15.5071 23.3008 15.6916 23.1718 15.9115C23.0427 16.1314 22.9803 16.3787 22.9908 16.628C23.0014 16.8772 23.0846 17.1194 23.2318 17.3295C23.3791 17.5397 23.5851 17.7102 23.8286 17.8236V20.0189H25.2268V17.8236C25.4792 17.7062 25.6911 17.5275 25.8392 17.3071C25.9872 17.0868 26.0656 16.8333 26.0657 16.5749V16.5749Z" fill="#2F2E41"/>
<path d="M4.04047 23V5.48H9.46447C10.5045 5.48 11.4165 5.696 12.2005 6.128C12.9845 6.544 13.5925 7.128 14.0245 7.88C14.4565 8.632 14.6725 9.512 14.6725 10.52C14.6725 11.704 14.3605 12.72 13.7365 13.568C13.1285 14.416 12.2965 15 11.2405 15.32L14.9125 23H12.3685L9.00847 15.56H6.20047V23H4.04047ZM6.20047 13.616H9.46447C10.3605 13.616 11.0805 13.336 11.6245 12.776C12.1685 12.2 12.4405 11.448 12.4405 10.52C12.4405 9.576 12.1685 8.824 11.6245 8.264C11.0805 7.704 10.3605 7.424 9.46447 7.424H6.20047V13.616Z" fill="white"/>
</svg>
